<?xml version="1.0" standalone="no"?>
<!DOCTYPE svg PUBLIC "-//W3C//DTD SVG 20010904//EN"
 "http://www.w3.org/TR/2001/REC-SVG-20010904/DTD/svg10.dtd">
<svg version="1.0" xmlns="http://www.w3.org/2000/svg"
 width="256.000000pt" height="256.000000pt" viewBox="0 0 256.000000 256.000000"
 preserveAspectRatio="xMidYMid meet">
<metadata>
Created by potrace 1.11, written by Peter Selinger 2001-2013
</metadata>
<g transform="translate(0.000000,256.000000) scale(0.100000,-0.100000)"
fill="#000000" stroke="none">
<path d="M1138 2535 c-2 -2 -23 -6 -48 -9 -188 -25 -393 -110 -554 -230 -214
-158 -357 -353 -450 -614 -25 -70 -30 -89 -42 -161 -3 -18 -8 -43 -10 -55 -3
-11 -8 -73 -11 -136 -26 -551 327 -1068 853 -1245 130 -44 229 -59 384 -60
166 0 224 7 341 39 406 112 729 417 861 811 20 61 39 127 42 148 3 20 9 54 13
75 15 76 8 333 -10 422 -24 113 -61 224 -101 307 -184 376 -535 634 -946 698
-71 11 -313 18 -322 10z"/>
</g>
</svg>
