<?xml version="1.0" standalone="no"?>
<!DOCTYPE svg PUBLIC "-//W3C//DTD SVG 20010904//EN"
 "http://www.w3.org/TR/2001/REC-SVG-20010904/DTD/svg10.dtd">
<svg version="1.0" xmlns="http://www.w3.org/2000/svg"
 width="256.000000pt" height="256.000000pt" viewBox="0 0 256.000000 256.000000"
 preserveAspectRatio="xMidYMid meet">
<metadata>
Created by potrace 1.11, written by Peter Selinger 2001-2013
</metadata>
<g transform="translate(0.000000,256.000000) scale(0.100000,-0.100000)"
fill="#000000" stroke="none">
<path d="M1445 2319 c-31 -17 -1194 -1181 -1211 -1211 -18 -35 -18 -101 0
-136 8 -15 53 -65 100 -112 75 -74 88 -83 104 -73 57 41 79 48 152 48 83 0
117 -14 169 -66 52 -52 66 -86 66 -169 0 -73 -7 -95 -48 -152 -10 -16 -1 -29
73 -104 47 -47 97 -92 112 -100 32 -17 95 -18 134 -4 31 12 1191 1177 1213
1218 19 36 10 121 -18 158 -12 17 -56 61 -98 99 -63 57 -78 67 -92 57 -55 -39
-78 -47 -151 -47 -83 0 -117 14 -169 66 -45 45 -63 85 -69 154 -4 61 11 114
50 167 11 16 2 28 -72 104 -47 47 -97 92 -112 100 -32 16 -104 18 -133 3z
m267 -597 c229 -228 248 -250 248 -282 0 -32 -28 -62 -408 -442 -379 -379
-410 -408 -442 -408 -31 0 -54 20 -282 247 -231 230 -248 250 -248 283 0 33
24 59 408 443 379 379 410 407 442 407 32 0 54 -20 282 -248z"/>
<path d="M1070 1475 l-355 -355 198 -197 197 -198 357 357 358 358 -195 195
c-107 107 -197 195 -200 195 -3 0 -165 -160 -360 -355z"/>
</g>
</svg>
